# xmcd
#
# Track frame offsets: 
#        182
#        27630
#        60305
#        87280
#        122110
#        153950
#        180985
#        244417
#        299830
#
# Disc length: 4432 seconds
#
# Revision: 1
# Processed by: cddbd v1.5.2PL0 Copyright (c) Steve Scherf et al.
# Submitted via: ExactAudioCopy v0.99pb4
#
DISCID=7c114e09
DTITLE=Prince - Explosion (Ultra Rare Mix no.1)
DYEAR=1993
DGENRE=Funk
TTITLE0=Cream (Hot Tracks Mix)
TTITLE1=Raspberry Beret (Hot Tracks Mix)
TTITLE2=Party Man (Hot Tracks Mix)
TTITLE3=Kiss (DMC Mix)
TTITLE4=Alphabet Street (DMC Mix)
TTITLE5=Sign 'O' The Times (DMC Mix)
TTITLE6=Musicfactory Megamix
TTITLE7=Mixx-it Classic Medley
TTITLE8=House Quake (Razormaid Mix)
EXTD=
EXTT0=
EXTT1=
EXTT2=
EXTT3=
EXTT4=
EXTT5=
EXTT6=
EXTT7=
EXTT8=
PLAYORDER=
